<svg xmlns="http://www.w3.org/2000/svg" version="1.1" xmlns:xlink="http://www.w3.org/1999/xlink" xmlns:svgjs="http://svgjs.com/svgjs" viewBox="0 0 24 24" height="24" width="24"><title>image file landscape (From Streamline App : https://app.streamlineicons.com)</title><g transform="matrix(1,0,0,1,0,0)"><path d="M 8.5,7.5c1.105,0,2,0.895,2,2s-0.895,2-2,2s-2-0.895-2-2S7.395,7.5,8.5,7.5z " stroke="#000000" fill="none" stroke-width="1" stroke-linecap="round" stroke-linejoin="round"></path><path d="M 13.924,12.178 c-0.146-0.234-0.455-0.305-0.689-0.159c-0.064,0.04-0.119,0.095-0.159,0.159L10.437,16.4l-1.075-1.722 c-0.146-0.234-0.455-0.305-0.689-0.159c-0.064,0.04-0.119,0.095-0.159,0.159L5.5,19.5h13L13.924,12.178z " stroke="#000000" fill="none" stroke-width="1" stroke-linecap="round" stroke-linejoin="round"></path><path d="M 21.207,4.5 C21.395,4.687,21.5,4.942,21.5,5.207V22.5c0,0.552-0.448,1-1,1h-17c-0.552,0-1-0.448-1-1v-21c0-0.552,0.448-1,1-1h13.293 c0.265,0,0.52,0.105,0.707,0.293L21.207,4.5z" stroke="#000000" fill="none" stroke-width="1" stroke-linecap="round" stroke-linejoin="round"></path></g></svg>