<svg xmlns="http://www.w3.org/2000/svg" version="1.1" xmlns:xlink="http://www.w3.org/1999/xlink" xmlns:svgjs="http://svgjs.com/svgjs" viewBox="0 0 24 24" height="24" width="24"><title>list bullets (From Streamline App : https://app.streamlineicons.com)</title><g transform="matrix(1,0,0,1,0,0)"><path d="M 2.5,2.498c1.105,0,2,0.895,2,2s-0.895,2-2,2s-2-0.895-2-2S1.395,2.498,2.5,2.498z " stroke="#000000" fill="none" stroke-width="1" stroke-linecap="round" stroke-linejoin="round"></path><path d="M 8.5,4.498h15 " stroke="#000000" fill="none" stroke-width="1" stroke-linecap="round" stroke-linejoin="round"></path><path d="M 2.5,10.498 c1.105,0,2,0.895,2,2s-0.895,2-2,2s-2-0.895-2-2S1.395,10.498,2.5,10.498z " stroke="#000000" fill="none" stroke-width="1" stroke-linecap="round" stroke-linejoin="round"></path><path d="M 8.5,12.498h15 " stroke="#000000" fill="none" stroke-width="1" stroke-linecap="round" stroke-linejoin="round"></path><path d="M 2.5,18.498c1.105,0,2,0.895,2,2 s-0.895,2-2,2s-2-0.895-2-2S1.395,18.498,2.5,18.498z " stroke="#000000" fill="none" stroke-width="1" stroke-linecap="round" stroke-linejoin="round"></path><path d="M 8.5,20.498h15" stroke="#000000" fill="none" stroke-width="1" stroke-linecap="round" stroke-linejoin="round"></path></g></svg>