<svg width="512" height="512" xmlns="http://www.w3.org/2000/svg">

 <g>
  <title>background</title>
  <rect fill="none" id="canvas_background" height="402" width="582" y="-1" x="-1"/>
 </g>
 <g>
  <title>Layer 1</title>
  <path id="svg_2" fill="none" d="m60.889,351.418l37.726,0c2.761,0 5,2.238 5,5l0,66.582l116.315,-70.853c0.784,-0.477 1.684,-0.729 2.601,-0.729l228.581,0l0,-266.319l-390.223,0l0,266.319zm300.701,-240.918l60.75,0c2.762,0 5,2.239 5,5l0,60.74c0,2.761 -2.238,5 -5,5s-5,-2.239 -5,-5l0,-55.74l-55.75,0c-2.762,0 -5,-2.239 -5,-5s2.238,-5 5,-5z"/>
  <path id="svg_3" fill="#ffffff" d="m456.112,75.099l-400.223,0c-2.761,0 -5,2.239 -5,5l0,276.318c0,2.762 2.239,5 5,5l37.726,0l0,70.483c0,1.808 0.976,3.474 2.551,4.359c0.761,0.428 1.605,0.641 2.449,0.641c0.902,0 1.803,-0.244 2.601,-0.729l122.718,-74.753l232.178,0c2.762,0 5,-2.238 5,-5l0,-276.319c0,-2.761 -2.239,-5 -5,-5zm-5,276.319l-228.581,0c-0.917,0 -1.817,0.253 -2.601,0.729l-116.315,70.853l0,-66.582c0,-2.762 -2.239,-5 -5,-5l-37.726,0l0,-266.319l390.223,0l0,266.319z"/>
  <path id="svg_4" fill="#ffffff" d="m361.59,120.5l55.75,0l0,55.74c0,2.761 2.238,5 5,5s5,-2.239 5,-5l0,-60.74c0,-2.761 -2.238,-5 -5,-5l-60.75,0c-2.762,0 -5,2.239 -5,5s2.238,5 5,5z"/>
 </g>
</svg>