<svg width="64" height="64" xmlns="http://www.w3.org/2000/svg">

 <g>
  <title>background</title>
  <rect fill="none" id="canvas_background" height="402" width="582" y="-1" x="-1"/>
 </g>
 <g>
  <title>Layer 1</title>
  <path fill="#ffffff" id="svg_1" d="m50,51.5l-3.5,0l0,-39l3.5,0c0.276,0 0.5,-0.224 0.5,-0.5s-0.224,-0.5 -0.5,-0.5l-8,0c-0.276,0 -0.5,0.224 -0.5,0.5s0.224,0.5 0.5,0.5l3.5,0l0,19l-27,0l0,-19l3.5,0c0.276,0 0.5,-0.224 0.5,-0.5s-0.224,-0.5 -0.5,-0.5l-8,0c-0.276,0 -0.5,0.224 -0.5,0.5s0.224,0.5 0.5,0.5l3.5,0l0,39l-3.5,0c-0.276,0 -0.5,0.224 -0.5,0.5s0.224,0.5 0.5,0.5l8,0c0.276,0 0.5,-0.224 0.5,-0.5s-0.224,-0.5 -0.5,-0.5l-3.5,0l0,-19l27,0l0,19l-3.5,0c-0.276,0 -0.5,0.224 -0.5,0.5s0.224,0.5 0.5,0.5l8,0c0.276,0 0.5,-0.224 0.5,-0.5s-0.224,-0.5 -0.5,-0.5z"/>
 </g>
</svg>