<svg xmlns="http://www.w3.org/2000/svg" version="1.1" xmlns:xlink="http://www.w3.org/1999/xlink" xmlns:svgjs="http://svgjs.com/svgjs" viewBox="0 0 24 24" width="24" height="24"><title>Exported from Streamline App (https://app.streamlineicons.com)</title><g transform="matrix(1,0,0,1,0,0)"><path d="M12,0C5.373,0,0,5.373,0,12s5.373,12,12,12s12-5.373,12-12C23.992,5.376,18.624,0.008,12,0z M18.927,8.2l-6.845,9.289 c-0.336,0.446-0.97,0.535-1.416,0.199c-0.005-0.004-0.009-0.007-0.014-0.011l-4.888-3.908c-0.431-0.345-0.501-0.975-0.156-1.406 s0.975-0.501,1.406-0.156l4.076,3.261l6.227-8.451c0.306-0.46,0.927-0.584,1.387-0.278c0.46,0.306,0.584,0.927,0.278,1.387 C18.964,8.152,18.946,8.176,18.927,8.2z" stroke="none" fill="rgb(120,120,120)" stroke-width="0" stroke-linecap="round" stroke-linejoin="round"></path></g></svg>