<svg xmlns="http://www.w3.org/2000/svg" version="1.1" xmlns:xlink="http://www.w3.org/1999/xlink" xmlns:svgjs="http://svgjs.com/svgjs" viewBox="0 0 24 24" width="24" height="24"><title>Exported from Streamline App (https://app.streamlineicons.com)</title><g transform="matrix(1,0,0,1,0,0)"><path d="M20.488,3.515C15.802-1.167,8.208-1.163,3.526,3.523s-4.678,12.28,0.008,16.962c4.683,4.679,12.271,4.679,16.954,0 C25.166,15.796,25.166,8.204,20.488,3.515z M16.709,15.279c0.369,0.411,0.335,1.043-0.076,1.412 c-0.379,0.34-0.953,0.341-1.333,0.003l-3.11-3.11c-0.098-0.097-0.256-0.097-0.354,0l-3.109,3.11c-0.395,0.381-1.02,0.381-1.415,0 c-0.391-0.39-0.391-1.023-0.001-1.414c0,0,0.001-0.001,0.001-0.001l3.11-3.109c0.097-0.097,0.098-0.255,0.001-0.352 c0,0-0.001-0.001-0.001-0.001l-3.11-3.11C6.94,8.298,6.97,7.666,7.379,7.294c0.38-0.346,0.961-0.347,1.343-0.002l3.109,3.11 c0.098,0.098,0.256,0.098,0.354,0c0,0,0,0,0,0l3.11-3.11c0.391-0.39,1.024-0.39,1.414,0.001s0.39,1.024,0,1.414l-3.11,3.11 c-0.097,0.098-0.097,0.255,0,0.353L16.709,15.279z" stroke="none" fill="rgb(120,120,120)" stroke-width="0" stroke-linecap="round" stroke-linejoin="round"></path></g></svg>