<svg xmlns="http://www.w3.org/2000/svg" version="1.1" xmlns:xlink="http://www.w3.org/1999/xlink" xmlns:svgjs="http://svgjs.com/svgjs" viewBox="0 0 24 24" width="24" height="24"><title>Exported from Streamline App (https://app.streamlineicons.com)</title><g transform="matrix(1,0,0,1,0,0)"><path d="M 14.247,5.25h7.5c0.828,0,1.5,0.672,1.5,1.5v15c0,0.828-0.672,1.5-1.5,1.5h-13.5c-0.828,0-1.5-0.672-1.5-1.5 v-6 " stroke="#ffffff" fill="none" stroke-width="0.6" stroke-linecap="round" stroke-linejoin="round"></path><path d="M 12.747,9.75h7.503 " stroke="#ffffff" fill="none" stroke-width="0.6" stroke-linecap="round" stroke-linejoin="round"></path><path d="M 10.497,14.25h9.753 " stroke="#ffffff" fill="none" stroke-width="0.6" stroke-linecap="round" stroke-linejoin="round"></path><path d="M 10.5,18.75h9.75 " stroke="#ffffff" fill="none" stroke-width="0.6" stroke-linecap="round" stroke-linejoin="round"></path><path d="M 8.25,9.75v-3l4.189-4.189c0.414-0.414,0.414-1.086,0-1.5 c-0.199-0.199-0.468-0.31-0.75-0.311H1.811c-0.586,0-1.061,0.476-1.061,1.061c0,0.281,0.112,0.551,0.311,0.75L5.25,6.75v6 L8.25,9.75z" stroke="#ffffff" fill="none" stroke-width="0.6" stroke-linecap="round" stroke-linejoin="round"></path></g></svg>