<svg xmlns="http://www.w3.org/2000/svg" version="1.1" xmlns:xlink="http://www.w3.org/1999/xlink" xmlns:svgjs="http://svgjs.com/svgjs" viewBox="0 0 24 24" height="24" width="24"><title>Exported from Streamline App (https://app.streamlineicons.com)</title><g transform="matrix(1,0,0,1,0,0)"><path d="M 6.5,4.498h17 " stroke="#ffffff" fill="none" stroke-width="0.5" stroke-linecap="round" stroke-linejoin="round"></path><path d="M 6.5,12.498h17 " stroke="#ffffff" fill="none" stroke-width="0.5" stroke-linecap="round" stroke-linejoin="round"></path><path d="M 6.5,20.498h17 " stroke="#ffffff" fill="none" stroke-width="0.5" stroke-linecap="round" stroke-linejoin="round"></path><path d="M 0.5,19.239c0.144-0.533,0.693-0.848,1.226-0.704 c0.533,0.144,0.848,0.693,0.704,1.226C2.313,20.197,1.918,20.5,1.466,20.5c0.552,0.001,0.999,0.45,0.998,1.002 c-0.001,0.552-0.45,0.999-1.002,0.998C1.013,22.499,0.62,22.199,0.5,21.767 " stroke="#ffffff" fill="none" stroke-width="0.5" stroke-linecap="round" stroke-linejoin="round"></path><path d="M 0.5,11.5c0-0.552,0.448-1,1-1l0,0c0.552,0,1,0.448,1,1 l0,0c0,0.324-0.11,0.638-0.312,0.891L0.5,14.5h2 " stroke="#ffffff" fill="none" stroke-width="0.5" stroke-linecap="round" stroke-linejoin="round"></path><path d="M 0.5,2.5H1c0.276,0,0.5,0.224,0.5,0.5v3.5 " stroke="#ffffff" fill="none" stroke-width="0.5" stroke-linecap="round" stroke-linejoin="round"></path><path d="M 0.5,6.498h2" stroke="#ffffff" fill="none" stroke-width="0.5" stroke-linecap="round" stroke-linejoin="round"></path></g></svg>
