<svg width="512" height="512" xmlns="http://www.w3.org/2000/svg">

 <g>
  <title>background</title>
  <rect fill="none" id="canvas_background" height="402" width="582" y="-1" x="-1"/>
 </g>
 <g>
  <title>Layer 1</title>
  <path id="svg_2" fill="none" d="m288.818,284.855l76.64,0c1.766,0 3.401,0.932 4.302,2.451c0.457,0.771 0.701,1.657 0.701,2.554l0,81.994l71.638,-83.84l0,-156.418l-153.28,0l0,153.259l-0.001,0z"/>
  <path id="svg_3" fill="none" d="m69.904,284.855l76.639,0c2.214,0 4.165,1.456 4.794,3.579c0.137,0.462 0.208,0.945 0.208,1.426l0,81.994l71.639,-83.84l0,-156.418l-153.28,0l0,153.259z"/>
  <path id="svg_4" fill="#ffffff" d="m228.183,121.596l-163.279,0c-2.761,0 -5,2.239 -5,5l0,163.259c0,2.762 2.239,5 5,5l76.641,0l0,90.548c0,2.094 1.305,3.966 3.269,4.69c0.565,0.209 1.15,0.31 1.73,0.31c1.435,0 2.833,-0.618 3.802,-1.752l81.639,-95.543c0.773,-0.905 1.199,-2.063 1.199,-3.253l0,-163.259c-0.001,-2.761 -2.24,-5 -5.001,-5zm-5,166.418l-71.639,83.84l0,-81.994c0,-0.48 -0.071,-0.964 -0.208,-1.426c-0.629,-2.123 -2.58,-3.579 -4.794,-3.579l-76.638,0l0,-153.259l153.279,0l0,156.418z"/>
  <path id="svg_5" fill="#ffffff" d="m447.098,121.596l-163.28,0c-2.762,0 -5,2.239 -5,5l0,163.259c0,2.762 2.238,5 5,5l76.643,0l0,90.548c0,2.094 1.305,3.966 3.269,4.69c0.565,0.209 1.15,0.31 1.73,0.31c1.435,0 2.834,-0.618 3.803,-1.752l81.638,-95.543c0.773,-0.905 1.198,-2.063 1.198,-3.253l0,-163.259c-0.001,-2.761 -2.239,-5 -5.001,-5zm-5,166.418l-71.638,83.84l0,-81.994c0,-0.896 -0.244,-1.782 -0.701,-2.554c-0.9,-1.52 -2.536,-2.451 -4.302,-2.451l-76.64,0l0,-153.259l153.28,0l0,156.418l0.001,0z"/>
 </g>
</svg>