<svg xmlns="http://www.w3.org/2000/svg" version="1.1" xmlns:xlink="http://www.w3.org/1999/xlink" xmlns:svgjs="http://svgjs.com/svgjs" viewBox="0 0 24 24" height="24" width="24"><title>Exported from Streamline App (https://app.streamlineicons.com)</title><g transform="matrix(1,0,0,1,0,0)"><path d="M 8.5,4.498h15 " stroke="#ffffff" fill="none" stroke-width="1" stroke-linecap="round" stroke-linejoin="round"></path><path d="M 8.5,12.498h15 " stroke="#ffffff" fill="none" stroke-width="1" stroke-linecap="round" stroke-linejoin="round"></path><path d="M 8.5,20.498h15 " stroke="#ffffff" fill="none" stroke-width="1" stroke-linecap="round" stroke-linejoin="round"></path><path d="M 1.5,2.498h2c0.552,0,1,0.448,1,1v2c0,0.552-0.448,1-1,1h-2 c-0.552,0-1-0.448-1-1v-2C0.5,2.946,0.948,2.498,1.5,2.498z " stroke="#ffffff" fill="none" stroke-width="1" stroke-linecap="round" stroke-linejoin="round"></path><path d="M 1.5,10.498h2c0.552,0,1,0.448,1,1v2c0,0.552-0.448,1-1,1h-2 c-0.552,0-1-0.448-1-1v-2C0.5,10.946,0.948,10.498,1.5,10.498z " stroke="#ffffff" fill="none" stroke-width="1" stroke-linecap="round" stroke-linejoin="round"></path><path d="M 1.5,18.498h2c0.552,0,1,0.448,1,1v2c0,0.552-0.448,1-1,1h-2 c-0.552,0-1-0.448-1-1v-2C0.5,18.946,0.948,18.498,1.5,18.498z" stroke="#ffffff" fill="none" stroke-width="1" stroke-linecap="round" stroke-linejoin="round"></path></g></svg>